<svg enable-background="new 0 0 378 66" viewBox="0 0 377.9 65.5" xmlns="http://www.w3.org/2000/svg"><g fill="#fff"><path d="m258.5 1.7-.8 4h5.8l-.2 1h-5.8l-.8 4.2h6.7l-.2 1h-7.9l2.2-11.2h7.7l-.2 1z"/><path d="m273.8 4.1c.5.5.8 1.3.8 2 0 .3 0 .6-.1 1l-1 4.8h-1.1l1-4.8c0-.3.1-.5.1-.8 0-.5-.2-1-.6-1.4-.5-.4-1-.5-1.6-.5-.8 0-1.6.2-2.2.7-.6.6-1 1.4-1.2 2.2l-.9 4.5h-1.1l1.7-8.4h1.1l-.3 1.3c.8-1 2-1.5 3.3-1.4.7 0 1.5.3 2.1.8z"/><path d="m284.6 4.1c.5.5.8 1.3.8 2 0 .3 0 .6-.1 1l-1 4.8h-1.1l1-4.8c0-.3.1-.5.1-.8 0-.5-.2-1-.6-1.4-.5-.4-1-.5-1.6-.5-.8 0-1.6.2-2.2.7-.6.6-1 1.4-1.2 2.2l-.9 4.5h-1.1l2.3-11.8h1.1l-.9 4.7c.8-.9 2-1.4 3.2-1.3.8-.1 1.6.2 2.2.7z"/><path d="m296.8 3.5-1.7 8.4h-1.1l.3-1.3c-.4.4-.9.8-1.4 1-.6.3-1.2.4-1.8.4-.7 0-1.3-.1-1.9-.4-.5-.3-1-.7-1.3-1.2-.3-.6-.5-1.2-.5-1.9 0-.9.2-1.8.6-2.6.4-.7 1-1.4 1.7-1.8s1.6-.7 2.4-.6c.7 0 1.4.1 2 .5.5.3 1 .8 1.2 1.4l.4-1.8zm-3.6 6.9c.6-.3 1-.8 1.3-1.4s.5-1.3.5-2-.2-1.4-.7-1.9c-.6-.5-1.3-.7-2-.7s-1.3.2-1.9.5-1 .8-1.3 1.4-.5 1.3-.5 2 .2 1.4.7 1.9c.6.5 1.3.7 2 .7s1.3-.1 1.9-.5z"/><path d="m306.3 4.1c.5.5.8 1.3.8 2 0 .3 0 .6-.1 1l-1 4.8h-1.1l1-4.8c0-.3.1-.5.1-.8 0-.5-.2-1-.6-1.4-.5-.4-1-.5-1.6-.5-.8 0-1.6.2-2.2.7-.6.6-1.1 1.4-1.2 2.2l-.9 4.5h-1.1l1.7-8.4h1.1l-.3 1.3c.8-1 2-1.5 3.3-1.4.7 0 1.5.3 2.1.8z"/><path d="m310.9 11.5c-.6-.3-1-.7-1.4-1.2-.3-.6-.5-1.2-.5-1.9 0-.9.2-1.8.6-2.6.4-.7 1-1.4 1.7-1.8.8-.4 1.6-.7 2.5-.6.7 0 1.4.1 2 .4s1 .7 1.3 1.3l-1 .6c-.5-.8-1.5-1.3-2.4-1.2-1.3 0-2.6.7-3.2 1.9-.3.6-.5 1.3-.5 2s.2 1.4.7 1.9c.6.5 1.3.7 2.1.7.5 0 1-.1 1.5-.3s.8-.5 1.1-.9l.8.6c-.4.5-.9.9-1.5 1.2s-1.3.4-2 .4c-.4 0-1.1-.2-1.8-.5z"/><path d="m319.1 8v.3c0 .7.2 1.4.7 2 .6.5 1.4.7 2.2.7.5 0 1.1-.1 1.6-.3s.9-.4 1.2-.8l.5.8c-.4.4-.9.7-1.5.9s-1.2.3-1.9.3c-1 .1-2.1-.3-2.9-1-.7-.7-1.1-1.6-1-2.6 0-.9.2-1.8.6-2.5.8-1.5 2.4-2.5 4.1-2.4 1-.1 1.9.3 2.7 1 .7.7 1 1.6 1 2.6 0 .3 0 .7-.1 1zm1.3-2.9c-.6.5-1 1.2-1.2 2h6c0-.1 0-.2 0-.3 0-.7-.2-1.4-.7-1.8-.5-.5-1.2-.7-1.9-.6-.8-.1-1.5.2-2.2.7z"/><path d="m337.8 0-2.4 11.9h-1.1l.3-1.3c-.4.4-.9.8-1.4 1-.6.3-1.2.4-1.8.4-.7 0-1.3-.1-1.9-.4-.5-.3-1-.7-1.3-1.2-.3-.6-.5-1.2-.5-1.9 0-.9.2-1.8.6-2.6.4-.7 1-1.4 1.7-1.8s1.6-.7 2.4-.6c.7 0 1.4.1 2 .5.5.3 1 .8 1.2 1.4l1-5.2zm-4.4 10.4c.6-.3 1-.8 1.3-1.4s.5-1.3.5-2-.2-1.4-.7-1.9c-.6-.5-1.3-.7-2-.7s-1.3.2-1.9.5-1 .8-1.3 1.4-.5 1.3-.5 2 .2 1.4.7 1.9c.6.5 1.3.7 2 .7s1.4-.1 1.9-.5z"/><path d="m356.9 3.5-4.8 8.4h-1.1l-1.4-6.9-3.9 6.9h-1.1l-1.6-8.4h1l1.4 7.1 4.1-7.1h1l1.4 7.1 4-7.1z"/><path d="m358.5 3.5h1.1l-1.7 8.4h-1.1zm.5-2.1c-.1-.1-.2-.3-.2-.5s.1-.5.2-.6c.2-.2.4-.3.6-.2.2 0 .4.1.6.2.1.1.2.3.2.5 0 .5-.4.9-.8.9 0 0 0 0-.1 0-.2-.1-.4-.2-.5-.3z"/><path d="m363 9.3c0 .2-.1.4-.1.5 0 .7.4 1.1 1.2 1.1.5 0 .9-.1 1.3-.4l.3.9c-.5.4-1.2.6-1.9.5-.5 0-1.1-.2-1.5-.5-.4-.4-.6-.9-.6-1.4 0-.2 0-.4.1-.7l1-5h-1.5l.2-1h1.5l.4-1.8h1.1l-.4 1.8h2.6l-.2 1h-2.6z"/><path d="m375.6 4.1c.5.5.8 1.3.8 2 0 .3 0 .6-.1 1l-1 4.8h-1.1l1-4.8c0-.3.1-.5.1-.8 0-.5-.2-1-.6-1.4-.5-.4-1-.5-1.6-.5-.8 0-1.6.2-2.2.7-.6.6-1.1 1.4-1.2 2.2l-.9 4.5h-1.1l2.3-11.8h1.1l-.9 4.7c.8-.9 2-1.4 3.2-1.3.8-.1 1.6.2 2.2.7z"/><path d="m51.1 28.2-.7 7.8h11.5l-2 23h7.8l2-23h11.6l.6-7.8z"/><path d="m158.6 28.2-.7 7.8h11.5l-2 23h7.9l2-23h11.5l.7-7.8z"/><path d="m108.8 28.2h-15.4c-5.1.1-9.3 4-9.8 9l-1.2 12.8c-.5 4.5 2.8 8.5 7.2 9 .3 0 .7.1 1 0h15.4c5.1-.1 9.3-4 9.8-9l1.1-12.8c.5-4.5-2.7-8.5-7.2-9-.2 0-.6 0-.9 0zm-.7 21.8c-.1.7-.6 1.2-1.3 1.2h-15.5c-.6 0-1.1-.5-1.1-1.1s0 0 0-.1l1.1-12.8c.1-.7.6-1.2 1.3-1.2h15.4c.6 0 1.1.5 1.1 1.1v.1z"/><path d="m147.2 28.2h-24.4l-2.7 30.8h7.8l.7-7.7h16.6c5.1-.1 9.4-3.9 9.9-9l.5-5.1c.5-4.5-2.8-8.5-7.2-9-.5 0-.9 0-1.2 0zm0 14.1c-.1.7-.6 1.2-1.3 1.2h-16.6l.7-7.5h16.6c.6 0 1.1.5 1.1 1.1v.1z"/><path d="m215.2 51.4h.4c5.1-.1 9.3-4 9.8-9l.5-5.1c.5-4.5-2.8-8.5-7.2-9-.3 0-.7-.1-1 0h-24.4l-2.8 30.7h7.8l1-10.9 12.9 10.9h12.2zm-14.9-15.4h16.6c.6 0 1.1.5 1.1 1.1v.1l-.5 5.1c-.1.7-.6 1.2-1.3 1.2h-16.6z"/><path d="m292.6 50c-.1.7-.6 1.2-1.3 1.2h-15.4c-.6 0-1.1-.5-1.1-1.1s0 0 0-.1l1.1-12.8c.1-.7.6-1.2 1.3-1.2h15.4c.6 0 1.1.5 1.1 1.1v.1l-.2 2.5h7.8l.2-2.5c.5-4.5-2.8-8.5-7.2-9-.4 0-.7-.1-1.1 0h-15.4c-5.1.1-9.3 4-9.8 9l-1.1 12.8c-.5 4.5 2.8 8.5 7.2 9 .3 0 .7.1 1 0h15.4c5.1-.1 9.3-4 9.8-9l.2-2.5h-7.8z"/><path d="m315.7 28.2c-5.1.1-9.3 4-9.8 9l-1.1 12.8c-.5 4.5 2.7 8.5 7.2 9 .4 0 .7.1 1.1 0h24.4l.7-7.8h-24.4c-.6 0-1.1-.5-1.1-1.1s0 0 0-.1l.2-2.5h17.8l.7-7.8h-17.7l.2-2.5c.1-.7.6-1.2 1.3-1.2h24.4l.7-7.8z"/><path d="m367.2 51.4h.4c5.1-.1 9.3-4 9.8-9l.5-5.1c.5-4.5-2.8-8.5-7.2-9-.3 0-.7-.1-1 0h-24.4l-2.8 30.7h7.8l1-10.9 13 10.9h12.1zm-14.8-15.4h16.6c.6 0 1.1.5 1.1 1.1v.1l-.4 5.1c-.1.7-.6 1.2-1.3 1.2h-16.6z"/><path d="m228.3 59h7.8l.7-7.7h17.8l-.6 7.7h7.8l1.9-21.8c.5-4.5-2.7-8.5-7.2-9-.4 0-.7-.1-1.1 0h-15.4c-5.1.1-9.3 4-9.8 9zm9.7-21.8c.1-.7.6-1.2 1.3-1.2h15.4c.6 0 1.1.5 1.1 1.1v.1l-.4 5.1-.1 1.2h-17.8z"/><path d="m22.4 22.9c-7.6 0-15.2 1.2-22.4 3.7 3 15.1 10.9 28.7 22.5 38.9 5.7-5 10.6-11 14.4-17.6s6.5-13.8 8-21.3c-7.2-2.5-14.8-3.7-22.5-3.7zm12.9 22.4c-.3-.4-.6-.7-.8-.9-.3-.3-.6-.5-.9-.8l-3.5-.6c.1.1.2.3.3.4l.3.6c.1.2.1.4.1.6 0 .1 0 .3-.1.4l3.7 1.8c-.1.3-.3.5-.5.8l-3.8-1.9c-.2.2-.5.3-.7.4-.4.2-.8.3-1.2.3-.5.1-1.1.1-1.6.2-.7 0-1.3 0-2-.1l2.4 5.6c1.4.1 2.8 0 4.2-.3-2.6 3.7-5.5 7.1-8.8 10.1-4.5-4.2-8.3-9-11.5-14.3 1.1.6 2.3 1.2 3.5 1.7 1.6.7 3.3 1.2 4.9 1.6 1.7.4 3.5.7 5.2.9l-1.8-5.6c-.8-.1-1.6-.3-2.3-.5s-1.5-.4-2.3-.7c-.7-.2-1.3-.5-2-.8-.5-.3-1.1-.5-1.6-.8l-5.4 1.4-.6-1.1 4.8-1.1c-.3-.3-.6-.6-.9-.9-.2-.2-.4-.5-.5-.8-.1-.2-.2-.5-.1-.7 0-.2 0-.3.1-.5l-5.6-1c-1.3-3.3-2.4-6.8-3.3-10.4 12.7-3.8 26.1-3.8 38.8 0-1.4 6-3.6 11.7-6.5 17z"/><path d="m25 42.1c0 .1 0 .1-.1.2s-.2.2-.4.3-.5.1-.7.1c-.3 0-.7 0-1 0l.9 2.1c.9.1 1.8.1 2.7 0 .5-.1 1.1-.2 1.5-.5.3-.2.5-.5.5-.8s-.1-.5-.3-.8z"/><path d="m23.5 41.7c0-.1 0-.2 0-.3-.1-.1-.2-.2-.3-.3s-.3-.2-.5-.3c-.1 0-.2-.1-.3-.1v-.4l.2.1c.3.1.6.2.8.3s.5.2.7.4c.1.1.3.2.4.3l3 .5c-.3-.3-.7-.5-1.1-.8-.5-.3-1-.6-1.5-.8s-1.1-.4-1.7-.6c-.2-.1-.5-.2-.8-.2v-.4l.8.2c.3.1.7.2 1 .3s.7.2 1 .4l1.3-.3c-.4-.2-.9-.3-1.4-.5s-.9-.3-1.4-.4-.9-.3-1.3-.4v-5.9c2.2-1.2 4.6.6 6.1-2.5-2.1.6-3.4-1.1-6.1-1.1h-1.3v11.5c-.1 0-.2 0-.3 0-.2 0-.3 0-.5 0-.1 0-.2.1-.3.1-.1.1-.1.1-.1.2s.1.2.2.3.3.2.5.3.4.2.7.3.5.2.8.2c.2 0 .5.1.7.1s.3 0 .5-.1c0 0 .1 0 .2-.1z"/><path d="m29.9 41.2c-.4-.2-.9-.5-1.4-.7-.3-.1-.6-.3-.9-.4l-1.3.3c.2.1.3.2.5.2.3.2.6.3.9.5s.6.3.8.5c.2.1.4.3.6.4l3.2.6c-.4-.3-.8-.5-1.1-.7s-.8-.4-1.3-.7z"/><path d="m15.5 38.3-2.1-1.1c-.5 0-1 0-1.5.1s-1 .1-1.5.2-1 .2-1.5.3c-.4.1-.9.3-1.3.5l5 .9c.2-.1.3-.2.5-.3s.5-.2.7-.3c.3-.1.6-.1.8-.2.3-.1.6-.1.9-.1z"/><path d="m17.2 38.2c.3 0 .7 0 1 .1.3 0 .7.1 1 .1s.6.1 1 .2l-.2-.8c-.5-.1-.9-.2-1.4-.2s-1-.1-1.5-.2-1-.1-1.5-.1h-.6l2 1z"/><path d="m17.1 38.8c-.5 0-.9.1-1.4.3-.3.1-.6.3-.9.5l3.6.7c.1-.1.2-.1.3-.2.2-.1.4-.1.5-.1h.7c.3 0 .5 0 .8.1l-.3-1.1c-.6-.1-1.2-.2-1.7-.2s-1.1 0-1.6 0z"/><path d="m20.4 42.1c-.3-.1-.7-.3-1-.4s-.5-.3-.7-.5c-.1-.1-.2-.2-.3-.3l-4-.7c0 .3.2.7.4.9.4.5.9.9 1.5 1.3.8.5 1.7.9 2.6 1.2 1.1.4 2.1.7 3.2.9l-.7-2.1c-.2-.1-.6-.2-1-.3z"/><path d="m33.4 58.2c-1.2 0-2.2 1-2.2 2.2s1 2.2 2.2 2.2 2.2-1 2.2-2.2-1-2.2-2.2-2.2zm0 4c-1 0-1.8-.8-1.8-1.8s.8-1.8 1.8-1.8 1.8.8 1.8 1.8-.8 1.8-1.8 1.8z"/><path d="m34 60.8c.3 0 .5-.1.5-.5v-.4c0-.2-.1-.5-.3-.5-.1 0-.1 0-.2 0h-1.6v1.9h.4v-.9l1.1.9h.6l-.6-.6zm-1.2-.9h1.1s.1 0 .1.1v.3c0 .1 0 .1-.1.1h-1.1z"/></g></svg>